Coordinates
version=1
nRows=24
nColumns=24
inDegrees=yes

Units are S.I. units (second, meters, Newtons, ...)
Angles are in degrees.

endheader
time	pelvis_tilt	pelvis_list	pelvis_rotation	pelvis_tx	pelvis_ty	pelvis_tz	hip_flexion_r	hip_adduction_r	hip_rotation_r	knee_angle_r	ankle_angle_r	subtalar_angle_r	mtp_angle_r	hip_flexion_l	hip_adduction_l	hip_rotation_l	knee_angle_l	ankle_angle_l	subtalar_angle_l	mtp_angle_l	lumbar_extension	lumbar_bending	lumbar_rotation
      6.30000000	     -1.09672371	      2.63295898	      0.04334420	     -0.93418788	      0.86100939	      0.25070738	    -16.44829038	      1.42999496	      6.33641992	    -11.17641278	     18.03076961	      1.02521937	      0.00000000	     23.30158416	      7.51162854	     -5.33948356	     -3.28907822	      1.69659842	     -1.12199216	      0.00000000	    -21.89987092	     -3.49045254	     -1.39192497
      6.31000000	     -1.04990126	      2.91722534	      0.08666658	     -0.91996068	      0.85979895	      0.25013678	    -16.07650785	      1.15306787	      5.67325410	    -13.85822258	     17.68395724	      2.05543829	      0.00000000	     23.61139274	      7.89531359	     -4.63653406	     -5.32716533	      0.99311787	     -3.21525333	      0.00000000	    -21.84096545	     -3.97129273	     -2.25543709
      6.32000000	     -0.96893001	      3.22851002	      0.25306416	     -0.90570329	      0.85879636	      0.24932714	    -15.62799500	      0.79885363	      4.49739150	    -16.70682049	     17.03469631	      3.49299462	      0.00000000	     23.96596589	      8.35826276	     -3.64938072	     -7.66739847	      0.21837221	     -5.40030579	      0.00000000	    -21.86054727	     -4.42023257	     -3.32680079
      6.33000000	     -0.89326441	      3.64726855	      0.48029099	     -0.89132635	      0.85798389	      0.24835865	    -15.07403883	      0.23713466	      2.92967459	    -19.68575922	     16.06350569	      5.25296280	      0.00000000	     24.39024782	      8.96402108	     -2.77213080	    -10.23111835	     -0.37136530	     -7.16098339	      0.00000000	    -21.88056308	     -4.96166358	     -4.55695083
      6.34000000	     -0.76190049	      4.05682936	      0.82216457	     -0.87703691	      0.85741770	      0.24704539	    -14.51014767	     -0.38646634	      1.23982726	    -22.70302482	     14.56236347	      6.93354678	      0.00000000	     24.74535197	      9.67044792	     -1.48115180	    -12.84963390	     -0.84397583	     -9.04785440	      0.00000000	    -22.02292386	     -5.40353064	     -5.90286532
      6.35000000	     -0.59568423	      4.48001872	      1.19837342	     -0.86284927	      0.85709404	      0.24559282	    -13.88874942	     -1.11868517	     -0.49428472	    -25.77984056	     12.58437642	      8.63601464	      0.00000000	     25.05765310	     10.42396104	     -0.49601960	    -15.50182188	     -0.72279821	    -10.11165008	      0.00000000	    -22.24890845	     -5.81308384	     -7.28036181
      6.36000000	     -0.42094449	      4.90105303	      1.60854311	     -0.84882874	      0.85694313	      0.24403975	    -13.19434061	     -1.90223866	     -2.08271493	    -28.87131483	     10.11253290	     10.09147546	      0.00000000	     25.27967881	     11.21000748	      0.32466792	    -18.03485675	     -0.10163599	    -10.68456967	      0.00000000	    -22.52501912	     -6.17896583	     -8.63834765
      6.37000000	     -0.26657541	      5.33318412	      2.01704134	     -0.83500603	      0.85696180	      0.24250091	    -12.37960361	     -2.72833497	     -3.42311845	    -31.97664777	      7.16248343	     11.23895072	      0.00000000	     25.37108542	     12.00193390	      0.90460317	    -20.30007808	      0.92397300	    -10.83393355	      0.00000000	    -22.80296601	     -6.54538277	     -9.93341441
      6.38000000	     -0.20179137	      5.71406379	      2.46445050	     -0.82149676	      0.85701736	      0.24095118	    -11.34260407	     -3.49777364	     -4.56724325	    -35.10773512	      3.74655174	     11.84555222	      0.00000000	     25.36530801	     12.75439945	      1.43474725	    -22.22206373	      2.26273382	    -10.79501141	      0.00000000	    -22.99652448	     -6.83444039	    -11.12961287
      6.39000000	     -0.23969061	      6.10665283	      2.84422246	     -0.80830837	      0.85716574	      0.23960103	    -10.03147577	     -4.28450020	     -5.41945339	    -38.29393384	     -0.02955867	     11.95281425	      0.00000000	     25.24180926	     13.45063312	      1.73467151	    -23.70916009	      3.79524001	    -10.49042567	      0.00000000	    -23.07648544	     -7.17669694	    -12.16004063
      6.40000000	     -0.37612020	      6.53291619	      3.09096417	     -0.79549403	      0.85746012	      0.23855239	     -8.42076688	     -5.10445464	     -5.93197698	    -41.54176399	     -4.07270724	     11.51618550	      0.00000000	     24.97948612	     14.08849782	      1.86430811	    -24.70362453	      5.31044773	    -10.10872571	      0.00000000	    -23.05590646	     -7.63039280	    -12.99437300
      6.41000000	     -0.68765306	      6.94698255	      3.18926821	     -0.78307718	      0.85771566	      0.23762988	     -6.40223100	     -5.96427576	     -6.23997833	    -44.87391598	     -8.15285338	     10.65992316	      0.00000000	     24.71125903	     14.63214590	      1.83314068	    -25.28210785	      6.84149068	     -9.63513921	      0.00000000	    -22.80003758	     -8.09629997	    -13.45067025
      6.42000000	     -0.96968205	      7.45134331	      3.13000405	     -0.77088096	      0.85833018	      0.23694455	     -4.27955345	     -6.90730593	     -6.28691738	    -48.14762065	    -12.12639215	      9.43567323	      0.00000000	     24.17857278	     15.18323992	      1.67890578	    -25.37322168	      8.08731819	     -9.34249376	      0.00000000	    -22.56374036	     -8.70847170	    -13.80762046
      6.43000000	     -1.38199883	      7.98642292	      2.93722107	     -0.75901929	      0.85896182	      0.23644820	     -1.85629945	     -7.87227916	     -6.09299626	    -51.41038545	    -15.56789939	      8.02612222	      0.00000000	     23.65476653	     15.69794362	      1.47550211	    -25.15884507	      9.18294750	     -8.93406712	      0.00000000	    -22.15889583	     -9.40526207	    -13.90079032
      6.44000000	     -1.73020273	      8.52351347	      2.64449190	     -0.74730213	      0.85994920	      0.23606139	      0.56223065	     -8.79190316	     -5.72310473	    -54.50451228	    -18.29712309	      6.57496000	      0.00000000	     22.92687973	     16.17147961	      1.21527441	    -24.64676324	     10.02633981	     -8.65507755	      0.00000000	    -21.79368115	    -10.09638451	    -13.88899189
      6.45000000	     -2.04205629	      9.01209614	      2.29732992	     -0.73573880	      0.86122005	      0.23577133	      2.97682571	     -9.59227883	     -5.22266850	    -57.40591064	    -20.03604998	      5.22891884	      0.00000000	     22.07534138	     16.57221169	      0.94703273	    -23.94361046	     10.67073012	     -8.40468130	      0.00000000	    -21.44867446	    -10.72265237	    -13.78519841
      6.46000000	     -2.24746162	      9.40234985	      1.94405581	     -0.72429126	      0.86288103	      0.23553715	      5.25434529	    -10.20588727	     -4.68146525	    -60.04142796	    -20.69513019	      4.01781408	      0.00000000	     21.03511262	     16.87584676	      0.73999180	    -23.09213707	     11.13317531	     -8.22416785	      0.00000000	    -21.22472301	    -11.20453383	    -13.72057013
      6.47000000	     -2.45188981	      9.66661202	      1.63337007	     -0.71300221	      0.86471378	      0.23531319	      7.49105250	    -10.62035717	     -4.16944815	    -62.41844499	    -20.19540448	      3.03698736	      0.00000000	     19.96512137	     17.06588508	      0.61564517	    -22.18999814	     11.48108287	     -8.00841792	      0.00000000	    -21.01393680	    -11.51911375	    -13.59499633
      6.48000000	     -2.59464985	      9.78388112	      1.45234345	     -0.70189265	      0.86681703	      0.23498495	      9.55936548	    -10.83788442	     -3.83062773	    -64.46128719	    -18.73472675	      2.23702528	      0.00000000	     18.80297102	     17.14783026	      0.63456127	    -21.27045321	     11.70027122	     -7.77288872	      0.00000000	    -20.93460250	    -11.61463321	    -13.56183318
      6.49000000	     -2.73251765	      9.71421033	      1.35284939	     -0.69087090	      0.86906393	      0.23456480	     11.51899361	    -10.82360386	     -3.61508089	    -66.13755089	    -16.59491351	      1.62753303	      0.00000000	     17.59729286	     17.06986710	      0.80695853	    -20.30866922	     11.90980513	     -7.57340267	      0.00000000	    -20.86797325	    -11.45627956	    -13.53014422
      6.50000000	     -2.85789290	      9.49537351	      1.35602325	     -0.68003858	      0.87142122	      0.23408787	     13.35995273	    -10.63103837	     -3.56460347	    -67.43997245	    -14.06527955	      1.05828456	      0.00000000	     16.37246220	     16.86088774	      1.09235885	    -19.34831143	     12.04773002	     -7.39076462	      0.00000000	    -20.87852425	    -11.09960576	    -13.54616918
      6.51000000	     -2.98876497	      9.17431203	      1.43813954	     -0.66932992	      0.87379389	      0.23355236	     15.10582049	    -10.32698134	     -3.64378817	    -68.37429627	    -11.35974487	      0.56390694	      0.00000000	     15.14590783	     16.55920984	      1.44845202	    -18.37315002	     12.12089648	     -7.23785859	      0.00000000	    -20.91675562	    -10.61382526	    -13.59583502
      6.52000000	     -3.10950921	      8.76743277	      1.56544712	     -0.65875853	      0.87614149	      0.23301878	     16.75550748	     -9.92584885	     -3.81380299	    -68.94980237	     -8.73523234	      0.05787887	      0.00000000	     13.91402797	     16.16771465	      1.87142627	    -17.39500265	     12.17599301	     -7.05267193	      0.00000000	    -21.00111824	    -10.03718298	    -13.60311849
      6.53000000	     -3.24660185	      8.31202660	      1.73713841	     -0.64830915	      0.87832278	      0.23239512	     18.34773326	     -9.49651484	     -4.06093300	    -69.20716522	     -6.25895922	     -0.35947230	      0.00000000	     12.72231276	     15.73367466	      2.29319277	    -16.42785713	     12.20221239	     -6.97127170	      0.00000000	    -21.08648266	     -9.38964395	    -13.66791060
